<svg width="97" height="30" viewBox="0 0 97 30" fill="none" xmlns="http://www.w3.org/2000/svg">
<path fill-rule="evenodd" clip-rule="evenodd" d="M26.4706 1C26.4706 0.447715 26.9183 0 27.4706 0H31.9412C32.4934 0 32.9412 0.447716 32.9412 1V29C32.9412 29.5523 32.4934 30 31.9412 30H27.4706C26.9183 30 26.4706 29.5523 26.4706 29V1ZM0 13.0586C0 12.5063 0.447716 12.0586 1 12.0586H5.47059C6.02287 12.0586 6.47059 12.5063 6.47059 13.0586V28.9998C6.47059 29.552 6.02287 29.9998 5.47058 29.9998H1C0.447715 29.9998 0 29.552 0 28.9998V13.0586ZM83.5293 1C83.5293 0.447715 83.0816 0 82.5293 0H78.0587C77.5064 0 77.0587 0.447716 77.0587 1V29C77.0587 29.5523 77.5064 30 78.0587 30H82.5293C83.0816 30 83.5293 29.5523 83.5293 29V1ZM90.294 1C90.294 0.447715 90.7417 0 91.294 0H95.7646C96.3169 0 96.7646 0.447716 96.7646 1V29C96.7646 29.5523 96.3169 30 95.7646 30H91.294C90.7417 30 90.294 29.5523 90.294 29V1ZM45.1877 0.707295C44.7972 0.31677 44.1641 0.316771 43.7735 0.707295L40.698 3.78285C40.3074 4.17337 40.3074 4.80654 40.698 5.19706L64.7938 29.2929C65.1843 29.6834 65.8175 29.6834 66.208 29.2929L69.2836 26.2173C69.6741 25.8268 69.6741 25.1936 69.2836 24.8031L45.1877 0.707295ZM48.2298 16.9819C48.6203 16.5914 49.2535 16.5914 49.644 16.9819L52.7195 20.0575C53.1101 20.448 53.1101 21.0812 52.7195 21.4717L44.9501 29.2411C44.5596 29.6316 43.9264 29.6316 43.5359 29.2411L40.4604 26.1656C40.0698 25.775 40.0698 25.1419 40.4604 24.7513L48.2298 16.9819ZM69.4083 5.19687C69.7988 4.80635 69.7988 4.17318 69.4083 3.78266L66.3327 0.707107C65.9422 0.316582 65.309 0.316583 64.9185 0.707107L57.1491 8.47651C56.7586 8.86703 56.7586 9.5002 57.1491 9.89072L60.2247 12.9663C60.6152 13.3568 61.2484 13.3568 61.6389 12.9663L69.4083 5.19687ZM19.7057 0C19.7058 0 19.7059 9.6682e-05 19.7059 0.000215716V6.7646C19.7059 6.76466 19.7058 6.7647 19.7058 6.7647C19.7057 6.7647 19.7057 6.76475 19.7057 6.76481V18.1176C19.7057 18.6699 19.2579 19.1176 18.7057 19.1176H14.2351C13.6828 19.1176 13.2351 18.6699 13.2351 18.1176V7.7647C13.2351 7.21242 12.7874 6.7647 12.2351 6.7647H1C0.447715 6.7647 0 6.31699 0 5.7647V1C0 0.447715 0.447715 0 1 0H13.2351H19.7057Z" fill="white"/>
</svg>
