<svg width="97" height="30" viewBox="0 0 97 30" fill="none" xmlns="http://www.w3.org/2000/svg">
<path fill-rule="evenodd" clip-rule="evenodd" d="M26.4706 1C26.4706 0.447715 26.9183 0 27.4706 0H31.9411C32.4934 0 32.9411 0.447716 32.9411 1V29C32.9411 29.5523 32.4934 30 31.9411 30H27.4706C26.9183 30 26.4706 29.5523 26.4706 29V1ZM77.0587 1C77.0587 0.447715 77.5064 0 78.0587 0H82.5293C83.0816 0 83.5293 0.447716 83.5293 1V29C83.5293 29.5523 83.0816 30 82.5293 30H78.0587C77.5064 30 77.0587 29.5523 77.0587 29V1ZM96.7646 1C96.7646 0.447715 96.3169 0 95.7646 0H91.294C90.7417 0 90.294 0.447716 90.294 1V29C90.294 29.5523 90.7417 30 91.294 30H95.7646C96.3169 30 96.7646 29.5523 96.7646 29V1ZM40.698 5.19706C40.3074 4.80654 40.3074 4.17337 40.698 3.78285L43.7735 0.707295C44.164 0.31677 44.7972 0.316769 45.1877 0.707294L69.2836 24.8031C69.6741 25.1936 69.6741 25.8268 69.2836 26.2173L66.208 29.2929C65.8175 29.6834 65.1843 29.6834 64.7938 29.2929L40.698 5.19706ZM52.7195 21.4717C53.1101 21.0812 53.1101 20.448 52.7195 20.0575L49.644 16.9819C49.2535 16.5914 48.6203 16.5914 48.2298 16.9819L40.4604 24.7513C40.0698 25.1419 40.0698 25.775 40.4604 26.1656L43.5359 29.2411C43.9264 29.6316 44.5596 29.6316 44.9501 29.2411L52.7195 21.4717ZM64.9185 0.707107C65.309 0.316582 65.9422 0.316583 66.3327 0.707107L69.4083 3.78266C69.7988 4.17318 69.7988 4.80635 69.4083 5.19687L61.6389 12.9663C61.2484 13.3568 60.6152 13.3568 60.2247 12.9663L57.1491 9.89072C56.7586 9.5002 56.7586 8.86703 57.1491 8.47651L64.9185 0.707107ZM6.47058 13.0586C6.47058 12.5063 6.02287 12.0586 5.47058 12.0586H1C0.447715 12.0586 0 12.5063 0 13.0586V28.9998C0 29.552 0.447716 29.9998 1 29.9998H5.47058C6.02287 29.9998 6.47058 29.552 6.47058 28.9998V13.0586ZM19.7057 0V0C19.7058 0 19.7059 8.08275e-05 19.7059 0.000180637V6.76461C19.7059 6.76466 19.7058 6.7647 19.7058 6.7647V6.7647C19.7057 6.7647 19.7057 6.76474 19.7057 6.76479V18.1176C19.7057 18.6699 19.258 19.1176 18.7057 19.1176H14.2351C13.6828 19.1176 13.2351 18.6699 13.2351 18.1176V7.7647C13.2351 7.21242 12.7874 6.7647 12.2351 6.7647H1C0.447715 6.7647 0 6.31699 0 5.7647V1C0 0.447715 0.447715 0 1 0H13.2351H19.7057Z" fill="#0D0D0D"/>
</svg>
